<svg width="23" height="23" viewBox="0 0 23 23" fill="none" xmlns="http://www.w3.org/2000/svg">
<path d="M8.62499 18.2084C3.83332 19.6459 3.83332 15.8125 1.91666 15.3334M15.3333 21.0834V17.3746C15.3693 16.9176 15.3075 16.4583 15.1522 16.027C14.9969 15.5957 14.7515 15.2025 14.4325 14.8734C17.4417 14.5379 20.6042 13.3975 20.6042 8.16502C20.6039 6.82702 20.0892 5.54034 19.1667 4.57127C19.6035 3.40067 19.5726 2.10677 19.0804 0.958355C19.0804 0.958355 17.9496 0.622938 15.3333 2.37669C13.1368 1.78139 10.8215 1.78139 8.62499 2.37669C6.00874 0.622938 4.87791 0.958355 4.87791 0.958355C4.38568 2.10677 4.35479 3.40067 4.79166 4.57127C3.86219 5.54753 3.34699 6.84584 3.35416 8.19377C3.35416 13.3879 6.51666 14.5284 9.52582 14.9021C9.21053 15.2279 8.96737 15.6165 8.81216 16.0424C8.65695 16.4684 8.59318 16.9223 8.62499 17.3746V21.0834" stroke="#F5F5F5" stroke-width="1.6" stroke-linecap="round" stroke-linejoin="round"/>
</svg>
