<svg width="20" height="20" viewBox="0 0 20 20" fill="none" xmlns="http://www.w3.org/2000/svg">
<path d="M13.3333 6.66669C14.6594 6.66669 15.9312 7.19347 16.8689 8.13115C17.8065 9.06884 18.3333 10.3406 18.3333 11.6667V17.5H15V11.6667C15 11.2247 14.8244 10.8007 14.5118 10.4882C14.1993 10.1756 13.7754 10 13.3333 10C12.8913 10 12.4674 10.1756 12.1548 10.4882C11.8423 10.8007 11.6667 11.2247 11.6667 11.6667V17.5H8.33332V11.6667C8.33332 10.3406 8.86011 9.06884 9.79779 8.13115C10.7355 7.19347 12.0072 6.66669 13.3333 6.66669Z" stroke="#F5F5F5" stroke-width="2" stroke-linecap="round" stroke-linejoin="round"/>
<path d="M4.99999 7.50002H1.66666V17.5H4.99999V7.50002Z" stroke="#F5F5F5" stroke-width="2" stroke-linecap="round" stroke-linejoin="round"/>
<path d="M3.33332 5.00002C4.2538 5.00002 4.99999 4.25383 4.99999 3.33335C4.99999 2.41288 4.2538 1.66669 3.33332 1.66669C2.41285 1.66669 1.66666 2.41288 1.66666 3.33335C1.66666 4.25383 2.41285 5.00002 3.33332 5.00002Z" stroke="#F5F5F5" stroke-width="2" stroke-linecap="round" stroke-linejoin="round"/>
</svg>
